:SAMPLES-PER-SECOND 30
:FULLY-SPECIFIED
:DEGREES
2720
root  7.07674 38.5274 11.2778 75.9476 88.2164 88.2771
RightUpLeg  -9.42948 -9.71403 -7.61816
RightLeg  33.8098 -4.3675 -3.39615
RightFoot  -10.2307 -0.0969751 2.84927
RightToes  0.000481921 0.542163 -0.142578
Spine  19.4984 -0.497983 1.01259
Spine1  16.7604 -0.138057 -0.270274
HEad  0.692479 0.911133 0.399572
LeftShoulder1  0.666542 -5.44641 1.11746
LeftArm  -72.6077 -47.4713 5.70946
LeftForeArm  114.534 -71.5603 -142.933
LeftHand  -0.25398 0.0180481 5.50724
RightShoulder  -0.0165134 -3.02161 -10.6886
RightArm  -61.1019 52.5656 2.20366
RightForeArm  73.396 70.6375 140.819
RightHand  -0.981983 -0.392664 -22.6238
LeftUpLeg  -8.40977 22.0857 2.99564
LeftLeg  31.9864 6.20033 4.51246
LeftFoot  -10.2016 0.0783694 -1.74359
LeftToes  1.06245e-005 4.65868e-005 -8.65517e-006
2721
root  7.07599 38.606 11.2476 84.7906 88.048 96.9288
RightUpLeg  -9.34129 -9.40993 -7.72929
RightLeg  33.322 -4.89297 -3.70747
RightFoot  -9.96924 -0.0994679 2.65916
RightToes  0.000481921 0.542163 -0.142578
Spine  19.2491 -0.463551 0.893289
Spine1  16.8976 -0.114622 -0.308728
HEad  0.511561 0.416422 0.784734
LeftShoulder1  0.670682 -5.6092 1.21697
LeftArm  -72.8012 -47.6993 5.62525
LeftForeArm  114.588 -71.671 -142.702
LeftHand  -0.25398 0.0180481 5.50724
RightShoulder  -0.01662 -3.25673 -10.5389
RightArm  -61.1551 52.4762 2.02784
RightForeArm  73.5968 70.5754 140.978
RightHand  -1.01325 -0.254566 -22.7283
LeftUpLeg  -8.21986 21.8233 2.51659
LeftLeg  31.0315 6.42582 4.50658
LeftFoot  -9.82947 0.0783216 -1.47021
LeftToes  1.06245e-005 4.65868e-005 -8.65517e-006
2722
root  7.06988 38.6746 11.2183 86.7792 87.8646 98.8671
RightUpLeg  -9.17733 -8.81911 -7.79355
RightLeg  32.8919 -5.519 -4.08343
RightFoot  -9.76704 -0.10089 2.52866
RightToes  0.000481921 0.542163 -0.142578
Spine  19.2435 -0.383259 0.699102
Spine1  16.9173 -0.080994 -0.268049
HEad  0.36849 0.145084 1.11582
LeftShoulder1  0.673676 -5.57426 1.14686
LeftArm  -72.8795 -47.9646 5.65887
LeftForeArm  114.744 -71.6871 -142.688
LeftHand  -0.25398 0.0180481 5.50724
RightShoulder  -0.0165428 -3.24789 -10.5591
RightArm  -61.3169 52.3317 1.93952
RightForeArm  73.7653 70.5278 141.1
RightHand  -1.01203 -0.22986 -22.5945
LeftUpLeg  -7.936 21.0296 2.01706
LeftLeg  30.2087 7.09884 4.79404
LeftFoot  -9.50146 0.0763555 -1.19688
LeftToes  1.06245e-005 4.65868e-005 -8.65517e-006
2723
root  7.06481 38.7253 11.1773 89.0411 87.7688 101.112
RightUpLeg  -8.96827 -8.60404 -7.90312
RightLeg  32.4798 -5.79569 -4.21166
RightFoot  -9.65783 -0.105878 2.64567
RightToes  0.000481921 0.542163 -0.142578
Spine  19.3525 -0.377798 0.621492
Spine1  16.774 -0.127769 -0.150796
HEad  0.382633 0.207123 1.07187
LeftShoulder1  0.691823 -5.52761 0.876115
LeftArm  -72.7409 -48.0076 5.79625
LeftForeArm  114.724 -71.6477 -142.771
LeftHand  -0.25398 0.0180481 5.50724
RightShoulder  -0.0163175 -3.01678 -10.7038
RightArm  -61.4689 52.2182 1.94053
RightForeArm  73.7361 70.529 141.096
RightHand  -0.945359 -0.510122 -22.2999
LeftUpLeg  -7.78226 20.1317 1.67713
LeftLeg  29.7609 7.78119 5.13199
LeftFoot  -9.22513 0.0784823 -1.25022
LeftToes  1.06245e-005 4.65868e-005 -8.65517e-006
2724
root  7.06627 38.7598 11.1282 91.2502 87.7787 103.253
RightUpLeg  -8.82747 -8.96194 -8.04457
RightLeg  32.1137 -5.54936 -3.99143
RightFoot  -9.56816 -0.115007 2.75178
RightToes  0.000481921 0.542163 -0.142578
Spine  19.3026 -0.365537 0.734076
Spine1  16.7203 -0.115576 -0.0869878
HEad  0.497729 0.304047 0.816053
LeftShoulder1  0.713476 -5.63118 0.70436
LeftArm  -72.6216 -47.9816 5.88905
LeftForeArm  114.371 -71.6932 -142.623
LeftHand  -0.25398 0.0180481 5.50724
RightShoulder  -0.0161011 -2.87207 -10.8383
RightArm  -61.4888 52.1558 2.07703
RightForeArm  73.5958 70.5285 141.089
RightHand  -0.898979 -0.752123 -22.2859
LeftUpLeg  -7.7301 19.9532 1.55453
LeftLeg  29.4812 7.92868 5.16786
LeftFoot  -9.0828 0.0783282 -1.20739
LeftToes  1.06245e-005 4.65868e-005 -8.65517e-006
2725
root  7.07228 38.7779 11.0842 90.715 87.844 102.661
RightUpLeg  -8.76353 -9.58045 -8.17569
RightLeg  31.881 -5.02733 -3.61063
RightFoot  -9.48584 -0.111742 2.66265
RightToes  0.000481921 0.542163 -0.142578
Spine  19.1553 -0.285964 0.855679
Spine1  16.8243 -0.0115449 -0.0895212
HEad  0.572802 0.315839 0.678214
LeftShoulder1  0.711598 -5.67474 0.770017
LeftArm  -72.7276 -48.0894 5.89403
LeftForeArm  113.98 -71.8019 -142.33
LeftHand  -0.25398 0.0180481 5.50724
RightShoulder  -0.0159253 -2.9568 -10.9518
RightArm  -61.3672 52.1964 2.39485
RightForeArm  73.5405 70.4831 141.193
RightHand  -0.94932 -0.576634 -22.6847
LeftUpLeg  -7.65654 20.3999 1.58729
LeftLeg  29.26 7.63635 4.95141
LeftFoot  -9.08968 0.0736596 -0.96983
LeftToes  1.06245e-005 4.65868e-005 -8.65517e-006
2726
root  7.07993 38.7734 11.0479 89.1778 87.9113 101.14
RightUpLeg  -8.72352 -10.1472 -8.28735
RightLeg  31.8388 -4.56019 -3.29456
RightFoot  -9.48342 -0.10627 2.60118
RightToes  0.000481921 0.542163 -0.142578
Spine  19.1504 -0.230523 0.861301
Spine1  16.8787 0.0423959 -0.0795224
HEad  0.562689 0.318645 0.745765
LeftShoulder1  0.68364 -5.48112 0.934569
LeftArm  -72.92 -48.1965 5.84837
LeftForeArm  114.103 -71.7931 -142.366
LeftHand  -0.25398 0.0180481 5.50724
RightShoulder  -0.0158091 -3.08326 -10.9708
RightArm  -61.2351 52.3725 2.65074
RightForeArm  73.7602 70.4296 141.331
RightHand  -1.02605 -0.237129 -22.9361
LeftUpLeg  -7.62587 20.7085 1.6688
LeftLeg  29.2994 7.40946 4.82335
LeftFoot  -9.17666 0.0719616 -0.893107
LeftToes  1.06245e-005 4.65868e-005 -8.65517e-006
2727
root  7.08888 38.7483 11.0129 89.1806 87.9534 101.185
RightUpLeg  -8.71788 -10.5511 -8.39946
RightLeg  31.9642 -4.24956 -3.10181
RightFoot  -9.5792 -0.107498 2.76359
RightToes  0.000481921 0.542163 -0.142578
Spine  19.2683 -0.249588 0.856363
Spine1  16.8461 0.0360535 -0.123965
HEad  0.467377 0.359068 0.848873
LeftShoulder1  0.659178 -5.28647 1.05959
LeftArm  -73.0209 -48.0857 5.79741
LeftForeArm  114.833 -71.6025 -142.883
LeftHand  -0.25398 0.0180481 5.50724
RightShoulder  -0.0157962 -3.06419 -10.7826
RightArm  -61.2507 52.566 2.55959
RightForeArm  74.2083 70.4162 141.386
RightHand  -1.03037 -0.154704 -22.6785
LeftUpLeg  -7.71458 20.6742 1.695
LeftLeg  29.603 7.41811 4.88288
LeftFoot  -9.2881 0.0728823 -0.954388
LeftToes  1.06245e-005 4.65868e-005 -8.65517e-006
2728
root  7.09843 38.7185 10.9806 89.501 87.9587 101.536
RightUpLeg  -8.76267 -10.7239 -8.50695
RightLeg  32.1747 -4.08202 -3.01232
RightFoot  -9.70386 -0.108358 2.96905
RightToes  0.000481921 0.542163 -0.142578
Spine  19.2884 -0.257914 0.953346
Spine1  16.9678 0.112149 -0.324208
HEad  0.298976 0.378703 0.855994
LeftShoulder1  0.662179 -5.36661 1.09816
LeftArm  -73.1537 -47.8669 5.81333
LeftForeArm  115.577 -71.396 -143.424
LeftHand  -0.25398 0.0180481 5.50724
RightShoulder  -0.0157761 -2.9681 -10.5547
RightArm  -61.4154 52.5846 2.31663
RightForeArm  74.5839 70.4094 141.423
RightHand  -0.995943 -0.252074 -22.3378
LeftUpLeg  -7.81976 20.6184 1.63683
LeftLeg  29.894 7.48775 4.97774
LeftFoot  -9.3996 0.0707024 -0.840405
LeftToes  1.06245e-005 4.65868e-005 -8.65517e-006
2729
root  7.1094 38.6994 10.9572 89.2849 87.9354 101.367
RightUpLeg  -8.78511 -10.6373 -8.5769
RightLeg  32.3575 -4.09637 -3.04162
RightFoot  -9.79138 -0.106608 3.00184
RightToes  0.000481921 0.542163 -0.142578
Spine  19.1474 -0.205132 1.0846
Spine1  17.331 0.273306 -0.561617
HEad  0.162687 0.316563 0.796449
LeftShoulder1  0.685915 -5.59443 1.01326
LeftArm  -73.426 -47.8132 5.86525
LeftForeArm  115.846 -71.334 -143.59
LeftHand  -0.25398 0.0180481 5.50724
RightShoulder  -0.0155789 -2.94237 -10.572
RightArm  -61.5478 52.4336 2.35272
RightForeArm  74.7035 70.3555 141.554
RightHand  -0.986857 -0.299381 -22.3346
LeftUpLeg  -7.82412 20.5997 1.5583
LeftLeg  30.0308 7.54051 5.03531
LeftFoot  -9.47986 0.0669482 -0.624202
LeftToes  1.06245e-005 4.65868e-005 -8.65517e-006
2730
root  7.12705 38.6942 10.9391 90.6507 87.9028 102.793
RightUpLeg  -8.72797 -10.4251 -8.61157
RightLeg  32.4434 -4.2759 -3.1731
RightFoot  -9.8344 -0.104358 2.95903
RightToes  0.000481921 0.542163 -0.142578
Spine  18.9669 -0.154145 1.13104
Spine1  17.7 0.364136 -0.630297
HEad  0.191261 0.192356 0.768612
LeftShoulder1  0.707487 -5.69034 0.835115
LeftArm  -73.6034 -47.9255 5.77241
LeftForeArm  115.872 -71.352 -143.556
LeftHand  -0.25398 0.0180481 5.50724
RightShoulder  -0.0152655 -2.98073 -10.745
RightArm  -61.5227 52.3544 2.62562
RightForeArm  74.695 70.2917 141.7
RightHand  -0.977302 -0.376109 -22.4471
LeftUpLeg  -7.76456 20.5047 1.51197
LeftLeg  30.0887 7.57882 5.06958
LeftFoot  -9.51579 0.0672536 -0.566909
LeftToes  1.06245e-005 4.65868e-005 -8.65517e-006
2731
root  7.15347 38.6968 10.9174 94.2086 87.8562 106.353
RightUpLeg  -8.66115 -10.2858 -8.662
RightLeg  32.459 -4.46865 -3.30631
RightFoot  -9.85817 -0.106109 3.01787
RightToes  0.000481921 0.542163 -0.142578
Spine  18.8177 -0.146875 1.08626
Spine1  17.8884 0.341215 -0.543909
HEad  0.310041 0.0880197 0.841317
LeftShoulder1  0.712301 -5.61855 0.707039
LeftArm  -73.4909 -47.9869 5.5228
LeftForeArm  116.078 -71.3073 -143.677
LeftHand  -0.25398 0.0180481 5.50724
RightShoulder  -0.0150635 -3.00704 -10.7299
RightArm  -61.4607 52.5019 2.67935
RightForeArm  74.6657 70.2918 141.698
RightHand  -0.950353 -0.520646 -22.4616
LeftUpLeg  -7.73696 20.4585 1.46234
LeftLeg  30.1024 7.52475 5.03865
LeftFoot  -9.53722 0.072324 -0.576956
LeftToes  1.06245e-005 4.65868e-005 -8.65517e-006
